<svg width="200" height="200" viewBox="0 0 200 200" fill="none" xmlns="http://www.w3.org/2000/svg">
      <defs>
        <radialGradient id="circularGradient" cx="50%" cy="50%" r="50%">
          <stop offset="0%" style="stop-color: #60A5FA"/>
          <stop offset="30%" style="stop-color: #3B82F6"/>
          <stop offset="60%" style="stop-color: #1D4ED8"/>
          <stop offset="100%" style="stop-color: #1E3A8A"/>
        </radialGradient>
        
        <linearGradient id="textGradient" x1="0%" y1="0%" x2="100%" y2="0%">
          <stop offset="0%" style="stop-color: #FFFFFF"/>
          <stop offset="100%" style="stop-color: #F1F5F9"/>
        </linearGradient>
        
        <linearGradient id="accentGradient" x1="0%" y1="0%" x2="100%" y2="100%">
          <stop offset="0%" style="stop-color: #F59E0B"/>
          <stop offset="50%" style="stop-color: #EF4444"/>
          <stop offset="100%" style="stop-color: #8B5CF6"/>
        </linearGradient>
        
        <linearGradient id="circuitGradient" x1="0%" y1="0%" x2="100%" y2="100%">
          <stop offset="0%" style="stop-color: #10B981; stop-opacity: 0.8"/>
          <stop offset="100%" style="stop-color: #06B6D4; stop-opacity: 0.6"/>
        </linearGradient>
      </defs>
      
      <circle cx="100" cy="100" r="95" fill="url(#circularGradient)" stroke="url(#accentGradient)" stroke-width="2"/>
      
      <circle cx="100" cy="100" r="80" fill="none" stroke="url(#accentGradient)" stroke-width="1" opacity="0.3"/>
      <circle cx="100" cy="100" r="65" fill="none" stroke="#FFFFFF" stroke-width="0.5" opacity="0.2"/>
      
      <g opacity="0.4" fill="url(#circuitGradient)">
        <circle cx="60" cy="50" r="2"/>
        <circle cx="90" cy="45" r="1.5"/>
        <circle cx="140" cy="50" r="2"/>
        <circle cx="150" cy="80" r="1.5"/>
        <circle cx="140" cy="150" r="2"/>
        <circle cx="60" cy="150" r="1.5"/>
        <circle cx="50" cy="120" r="2"/>
        <line x1="60" y1="50" x2="90" y2="45" stroke="url(#circuitGradient)" stroke-width="1"/>
        <line x1="90" y1="45" x2="140" y2="50" stroke="url(#circuitGradient)" stroke-width="1"/>
        <line x1="150" y1="80" x2="140" y2="150" stroke="url(#circuitGradient)" stroke-width="1"/>
        <line x1="60" y1="150" x2="50" y2="120" stroke="url(#circuitGradient)" stroke-width="1"/>
      </g>
      
      <rect x="40" y="120" width="120" height="35" rx="6" fill="rgba(255,255,255,0.9)" stroke="url(#accentGradient)" stroke-width="1.5"/>
      
      <g opacity="0.7">
        <line x1="50" y1="130" x2="110" y2="130" stroke="#1E3A8A" stroke-width="2"/>
        <line x1="50" y1="135" x2="140" y2="135" stroke="#3B82F6" stroke-width="2"/>
        <line x1="50" y1="140" x2="120" y2="140" stroke="#60A5FA" stroke-width="2"/>
        <line x1="50" y1="145" x2="130" y2="145" stroke="#1D4ED8" stroke-width="2"/>
      </g>
      
      <g fill="url(#accentGradient)" opacity="0.8">
        <rect x="120" y="125" width="6" height="6" rx="1"/>
        <rect x="130" y="128" width="4" height="4" rx="1"/>
        <rect x="138" y="125" width="6" height="6" rx="1"/>
        <rect x="148" y="128" width="4" height="4" rx="1"/>
        <line x1="126" y1="128" x2="130" y2="130" stroke="url(#accentGradient)" stroke-width="1"/>
        <line x1="134" y1="130" x2="138" y2="128" stroke="url(#accentGradient)" stroke-width="1"/>
        <line x1="144" y1="128" x2="148" y2="130" stroke="url(#accentGradient)" stroke-width="1"/>
      </g>
      
      <text x="100" y="85" text-anchor="middle" fill="url(#textGradient)" font-size="28" font-weight="600" font-family="system-ui, -apple-system, sans-serif">
        Lexa
      </text>
      <text x="130" y="85" text-anchor="middle" fill="#F59E0B" font-size="28" font-weight="300" font-family="system-ui, -apple-system, sans-serif">
        AI
      </text>
      
      <circle cx="138" cy="68" r="2.5" fill="#EF4444"/>
      
      <g stroke="#10B981" fill="none" opacity="0.6" stroke-width="2">
        <path d="M 30 100 Q 40 90 50 100"/>
        <path d="M 25 100 Q 40 80 55 100"/>
        <path d="M 20 100 Q 40 70 60 100"/>
      </g>
      
      <g stroke="#06B6D4" fill="none" opacity="0.6" stroke-width="2">
        <path d="M 150 100 Q 160 90 170 100"/>
        <path d="M 145 100 Q 160 80 175 100"/>
        <path d="M 140 100 Q 160 70 180 100"/>
      </g>
      
      <g fill="#F59E0B" opacity="0.7">
        <circle cx="70" cy="30" r="1.5"/>
        <circle cx="130" cy="35" r="1"/>
        <circle cx="165" cy="70" r="1.5"/>
        <circle cx="170" cy="130" r="1"/>
        <circle cx="130" cy="170" r="1.5"/>
        <circle cx="70" cy="165" r="1"/>
        <circle cx="35" cy="130" r="1.5"/>
        <circle cx="30" cy="70" r="1"/>
      </g>
      
      <g stroke="url(#accentGradient)" fill="none" opacity="0.3" stroke-width="1">
        <path d="M 100 20 L 100 35"/>
        <path d="M 100 165 L 100 180"/>
        <path d="M 20 100 L 35 100"/>
        <path d="M 165 100 L 180 100"/>
      </g>
    </svg>